<?xml version="1.0" encoding="utf-8"?>
<!-- Generator: Adobe Illustrator 24.0.0, SVG Export Plug-In . SVG Version: 6.00 Build 0)  -->
<svg version="1.1" id="Capa_1" xmlns="http://www.w3.org/2000/svg" xmlns:xlink="http://www.w3.org/1999/xlink" x="0px" y="0px"
	 viewBox="0 0 512 512" style="enable-background:new 0 0 512 512;" xml:space="preserve">
<style type="text/css">
	.st0{fill:#08F26E;}
</style>
<g>
	<path class="st0" d="M226,303.9l76.7-47.9L226,208.1V303.9z"/>
	<path class="st0" d="M437,0H75C33.6,0,0,33.6,0,75v361c0,41.4,33.6,75,75,75h362c41.4,0,75-33.6,75-75V75C512,33.6,478.4,0,437,0z
		 M339,268.7l-120,75c-4.7,2.9-10.5,3-15.2,0.4c-4.8-2.7-7.7-7.7-7.7-13.1V181c0-5.4,3-10.5,7.7-13.1s10.6-2.5,15.2,0.4l120,75
		c4.4,2.7,7,7.5,7,12.7S343.3,266,339,268.7z"/>
</g>
</svg>
